<?xml version="1.0" encoding="UTF-8" standalone="no"?><!-- Generator: Gravit.io --><svg xmlns="http://www.w3.org/2000/svg" xmlns:xlink="http://www.w3.org/1999/xlink" style="isolation:isolate" viewBox="0 0 60 60" width="60pt" height="60pt"><defs><clipPath id="_clipPath_BeJELVzOPktmPN5jIjriRKVYjkYyiBDM"><rect width="60" height="60"/></clipPath></defs><g clip-path="url(#_clipPath_BeJELVzOPktmPN5jIjriRKVYjkYyiBDM)"><clipPath id="_clipPath_UKb45tDWMgF9WpOsIkBiCI8rdEM0XaY7"><rect x="5" y="6" width="50" height="50" transform="matrix(1,0,0,1,0,0)" fill="rgb(255,255,255)"/></clipPath><g clip-path="url(#_clipPath_UKb45tDWMgF9WpOsIkBiCI8rdEM0XaY7)"><g><g><g><g><g><defs><filter id="cmc10olTl1JPJs8G7kslacyC44hg6YcN" x="-200%" y="-200%" width="400%" height="400%" filterUnits="objectBoundingBox" color-interpolation-filters="sRGB"><feGaussianBlur xmlns="http://www.w3.org/2000/svg" in="SourceGraphic" stdDeviation="2.146804531419514"/><feOffset xmlns="http://www.w3.org/2000/svg" dx="0" dy="0" result="pf_100_offsetBlur"/><feFlood xmlns="http://www.w3.org/2000/svg" flood-color="#F1C355" flood-opacity="1"/><feComposite xmlns="http://www.w3.org/2000/svg" in2="pf_100_offsetBlur" operator="in" result="pf_100_dropShadow"/><feBlend xmlns="http://www.w3.org/2000/svg" in="SourceGraphic" in2="pf_100_dropShadow" mode="normal"/></filter></defs><g filter="url(#cmc10olTl1JPJs8G7kslacyC44hg6YcN)"><path d=" M 53.747 44.63 L 43.627 37.881 C 42.343 37.031 40.621 37.311 39.672 38.523 L 36.724 42.314 C 36.345 42.813 35.657 42.958 35.109 42.654 L 34.548 42.345 C 32.689 41.331 30.376 40.07 25.716 35.408 C 21.056 30.746 19.792 28.432 18.778 26.576 L 18.471 26.015 C 18.162 25.467 18.304 24.776 18.804 24.394 L 22.592 21.447 C 23.804 20.497 24.084 18.776 23.235 17.492 L 16.486 7.371 C 15.616 6.063 13.872 5.67 12.525 6.48 L 8.293 9.022 C 6.964 9.804 5.988 11.07 5.571 12.555 C 4.047 18.107 5.194 27.69 19.31 41.808 C 30.539 53.036 38.899 56.056 44.645 56.056 C 45.967 56.061 47.284 55.889 48.561 55.544 C 50.046 55.128 51.312 54.152 52.094 52.822 L 54.638 48.593 C 55.449 47.246 55.056 45.5 53.747 44.63 Z  M 53.203 47.738 L 50.664 51.97 C 50.103 52.93 49.192 53.636 48.122 53.94 C 42.997 55.347 34.041 54.181 20.489 40.629 C 6.937 27.077 5.771 18.122 7.179 12.996 C 7.483 11.925 8.19 11.013 9.151 10.451 L 13.383 7.912 C 13.967 7.561 14.724 7.731 15.102 8.299 L 18.768 13.803 L 21.845 18.418 C 22.213 18.975 22.092 19.722 21.566 20.134 L 17.778 23.081 C 16.625 23.963 16.296 25.558 17.006 26.824 L 17.306 27.371 C 18.371 29.324 19.695 31.754 24.529 36.586 C 29.362 41.419 31.791 42.743 33.743 43.808 L 34.29 44.109 C 35.556 44.819 37.152 44.49 38.033 43.337 L 40.98 39.548 C 41.393 39.023 42.139 38.902 42.697 39.27 L 52.816 46.019 C 53.384 46.396 53.555 47.154 53.203 47.738 Z " fill="rgb(241,195,85)"/></g><defs><filter id="XdkgvY08sZbHdyHYDcIhcgIDoSMTtLMr" x="-200%" y="-200%" width="400%" height="400%" filterUnits="objectBoundingBox" color-interpolation-filters="sRGB"><feGaussianBlur xmlns="http://www.w3.org/2000/svg" in="SourceGraphic" stdDeviation="2.146804531419514"/><feOffset xmlns="http://www.w3.org/2000/svg" dx="0" dy="0" result="pf_100_offsetBlur"/><feFlood xmlns="http://www.w3.org/2000/svg" flood-color="#F1C355" flood-opacity="1"/><feComposite xmlns="http://www.w3.org/2000/svg" in2="pf_100_offsetBlur" operator="in" result="pf_100_dropShadow"/><feBlend xmlns="http://www.w3.org/2000/svg" in="SourceGraphic" in2="pf_100_dropShadow" mode="normal"/></filter></defs><g filter="url(#XdkgvY08sZbHdyHYDcIhcgIDoSMTtLMr)"><path d=" M 33.391 14.395 C 41.211 14.404 47.547 20.741 47.556 28.56 C 47.556 29.02 47.929 29.393 48.389 29.393 C 48.849 29.393 49.222 29.02 49.222 28.56 C 49.213 19.821 42.131 12.739 33.391 12.729 C 32.931 12.729 32.558 13.102 32.558 13.562 C 32.558 14.022 32.931 14.395 33.391 14.395 Z " fill="rgb(241,195,85)"/></g><g filter="url(#jL0ZcUZquXolvX1QKB9qiYcrBJbiOtaI)"><defs><filter id="hd28PbazUpKhz6UrgG2fYboyQYnNQsg9" x="-200%" y="-200%" width="400%" height="400%" filterUnits="objectBoundingBox" color-interpolation-filters="sRGB"><feGaussianBlur xmlns="http://www.w3.org/2000/svg" in="SourceGraphic" stdDeviation="2.146804531419514"/><feOffset xmlns="http://www.w3.org/2000/svg" dx="0" dy="0" result="pf_100_offsetBlur"/><feFlood xmlns="http://www.w3.org/2000/svg" flood-color="#F1C355" flood-opacity="1"/><feComposite xmlns="http://www.w3.org/2000/svg" in2="pf_100_offsetBlur" operator="in" result="pf_100_dropShadow"/><feBlend xmlns="http://www.w3.org/2000/svg" in="SourceGraphic" in2="pf_100_dropShadow" mode="normal"/></filter></defs><g filter="url(#hd28PbazUpKhz6UrgG2fYboyQYnNQsg9)"><path d=" M 33.391 19.395 C 38.451 19.401 42.551 23.501 42.557 28.56 C 42.557 29.02 42.93 29.393 43.39 29.393 C 43.85 29.393 44.223 29.02 44.223 28.56 C 44.216 22.581 39.371 17.735 33.391 17.728 C 32.931 17.728 32.558 18.101 32.558 18.561 C 32.558 19.022 32.931 19.395 33.391 19.395 Z " fill="rgb(241,195,85)"/></g></g><defs><filter id="jL0ZcUZquXolvX1QKB9qiYcrBJbiOtaI" x="-200%" y="-200%" width="400%" height="400%" filterUnits="objectBoundingBox" color-interpolation-filters="sRGB"><feGaussianBlur xmlns="http://www.w3.org/2000/svg" in="SourceGraphic" stdDeviation="7.299135406826348"/><feOffset xmlns="http://www.w3.org/2000/svg" dx="6" dy="2" result="pf_100_offsetBlur"/><feFlood xmlns="http://www.w3.org/2000/svg" flood-color="#F1C355" flood-opacity="1"/><feComposite xmlns="http://www.w3.org/2000/svg" in2="pf_100_offsetBlur" operator="in" result="pf_100_dropShadow"/><feBlend xmlns="http://www.w3.org/2000/svg" in="SourceGraphic" in2="pf_100_dropShadow" mode="normal"/></filter></defs><defs><filter id="hQG6vLAJiKAUJB7CV8zoJA6G1ukgwNn8" x="-200%" y="-200%" width="400%" height="400%" filterUnits="objectBoundingBox" color-interpolation-filters="sRGB"><feGaussianBlur xmlns="http://www.w3.org/2000/svg" in="SourceGraphic" stdDeviation="2.146804531419514"/><feOffset xmlns="http://www.w3.org/2000/svg" dx="0" dy="0" result="pf_100_offsetBlur"/><feFlood xmlns="http://www.w3.org/2000/svg" flood-color="#F1C355" flood-opacity="1"/><feComposite xmlns="http://www.w3.org/2000/svg" in2="pf_100_offsetBlur" operator="in" result="pf_100_dropShadow"/><feBlend xmlns="http://www.w3.org/2000/svg" in="SourceGraphic" in2="pf_100_dropShadow" mode="normal"/></filter></defs><g filter="url(#hQG6vLAJiKAUJB7CV8zoJA6G1ukgwNn8)"><path d=" M 33.391 24.394 C 35.691 24.397 37.555 26.26 37.557 28.56 C 37.557 29.02 37.93 29.393 38.391 29.393 C 38.851 29.393 39.224 29.02 39.224 28.56 C 39.22 25.34 36.611 22.731 33.391 22.728 C 32.931 22.728 32.558 23.101 32.558 23.561 C 32.558 24.021 32.931 24.394 33.391 24.394 Z " fill="rgb(241,195,85)"/></g></g></g></g></g></g></g></g></svg>