<?xml version="1.0" encoding="UTF-8" standalone="no"?><!-- Generator: Gravit.io --><svg xmlns="http://www.w3.org/2000/svg" xmlns:xlink="http://www.w3.org/1999/xlink" style="isolation:isolate" viewBox="0 0 50 50" width="50pt" height="50pt"><defs><clipPath id="_clipPath_I8rqrQbg3r5KhghL6u2xlHGqOVHIsgzm"><rect width="50" height="50"/></clipPath></defs><g clip-path="url(#_clipPath_I8rqrQbg3r5KhghL6u2xlHGqOVHIsgzm)"><g><g><g><g><path d=" M 48.747 38.63 L 38.627 31.881 C 37.343 31.031 35.621 31.311 34.672 32.523 L 31.724 36.314 C 31.345 36.813 30.657 36.958 30.109 36.654 L 29.548 36.345 C 27.689 35.331 25.376 34.07 20.716 29.408 C 16.056 24.746 14.792 22.432 13.778 20.576 L 13.471 20.015 C 13.162 19.467 13.304 18.776 13.804 18.394 L 17.592 15.447 C 18.804 14.497 19.084 12.776 18.235 11.492 L 11.486 1.371 C 10.616 0.063 8.872 -0.33 7.525 0.48 L 3.293 3.022 C 1.964 3.804 0.988 5.07 0.571 6.555 C -0.953 12.107 0.194 21.69 14.31 35.808 C 25.539 47.036 33.899 50.056 39.645 50.056 C 40.967 50.061 42.284 49.889 43.561 49.544 C 45.046 49.128 46.312 48.152 47.094 46.822 L 49.638 42.593 C 50.449 41.246 50.056 39.5 48.747 38.63 Z  M 48.203 41.738 L 45.664 45.97 C 45.103 46.93 44.192 47.636 43.122 47.94 C 37.997 49.347 29.041 48.181 15.489 34.629 C 1.937 21.077 0.771 12.122 2.179 6.996 C 2.483 5.925 3.19 5.013 4.151 4.451 L 8.383 1.912 C 8.967 1.561 9.724 1.731 10.102 2.299 L 13.768 7.803 L 16.845 12.418 C 17.213 12.975 17.092 13.722 16.566 14.134 L 12.778 17.081 C 11.625 17.963 11.296 19.558 12.006 20.824 L 12.306 21.371 C 13.371 23.324 14.695 25.754 19.529 30.586 C 24.362 35.419 26.791 36.743 28.743 37.808 L 29.29 38.109 C 30.556 38.819 32.152 38.49 33.033 37.337 L 35.98 33.548 C 36.393 33.023 37.139 32.902 37.697 33.27 L 47.816 40.019 C 48.384 40.396 48.555 41.154 48.203 41.738 Z " fill="rgb(241,195,85)"/><path d=" M 28.391 8.395 C 36.211 8.404 42.547 14.741 42.556 22.56 C 42.556 23.02 42.929 23.393 43.389 23.393 C 43.849 23.393 44.222 23.02 44.222 22.56 C 44.213 13.821 37.131 6.739 28.391 6.729 C 27.931 6.729 27.558 7.102 27.558 7.562 C 27.558 8.022 27.931 8.395 28.391 8.395 Z " fill="rgb(241,195,85)"/><defs><filter id="6QRg7kCzCsdZ54rI9lebCCn2wE18F1mF" x="-200%" y="-200%" width="400%" height="400%" filterUnits="objectBoundingBox" color-interpolation-filters="sRGB"><feGaussianBlur xmlns="http://www.w3.org/2000/svg" in="SourceGraphic" stdDeviation="7.299135406826348"/><feOffset xmlns="http://www.w3.org/2000/svg" dx="6" dy="2" result="pf_100_offsetBlur"/><feFlood xmlns="http://www.w3.org/2000/svg" flood-color="#F1C355" flood-opacity="1"/><feComposite xmlns="http://www.w3.org/2000/svg" in2="pf_100_offsetBlur" operator="in" result="pf_100_dropShadow"/><feBlend xmlns="http://www.w3.org/2000/svg" in="SourceGraphic" in2="pf_100_dropShadow" mode="normal"/></filter></defs><g filter="url(#6QRg7kCzCsdZ54rI9lebCCn2wE18F1mF)"><path d=" M 28.391 13.395 C 33.451 13.401 37.551 17.501 37.557 22.56 C 37.557 23.02 37.93 23.393 38.39 23.393 C 38.85 23.393 39.223 23.02 39.223 22.56 C 39.216 16.581 34.371 11.735 28.391 11.728 C 27.931 11.728 27.558 12.101 27.558 12.561 C 27.558 13.022 27.931 13.395 28.391 13.395 Z " fill="rgb(241,195,85)"/></g><path d=" M 28.391 18.394 C 30.691 18.397 32.555 20.26 32.557 22.56 C 32.557 23.02 32.93 23.393 33.391 23.393 C 33.851 23.393 34.224 23.02 34.224 22.56 C 34.22 19.34 31.611 16.731 28.391 16.728 C 27.931 16.728 27.558 17.101 27.558 17.561 C 27.558 18.021 27.931 18.394 28.391 18.394 Z " fill="rgb(241,195,85)"/></g></g></g></g></g></svg>