<?xml version="1.0" encoding="UTF-8" standalone="no"?><!-- Generator: Gravit.io --><svg xmlns="http://www.w3.org/2000/svg" xmlns:xlink="http://www.w3.org/1999/xlink" style="isolation:isolate" viewBox="0 0 55 55" width="55pt" height="55pt"><defs><clipPath id="_clipPath_FbplrXp2GGTnmxIaWf9OpRxqNNqHyg1W"><rect width="55" height="55"/></clipPath></defs><g clip-path="url(#_clipPath_FbplrXp2GGTnmxIaWf9OpRxqNNqHyg1W)"><g><g><g><g><path d=" M 51.188 41.072 L 41.068 34.323 C 39.784 33.474 38.062 33.753 37.113 34.966 L 34.165 38.756 C 33.786 39.256 33.097 39.4 32.549 39.096 L 31.988 38.787 C 30.129 37.774 27.816 36.512 23.156 31.85 C 18.496 27.189 17.232 24.874 16.219 23.018 L 15.911 22.458 C 15.603 21.91 15.745 21.218 16.245 20.836 L 20.032 17.889 C 21.244 16.94 21.524 15.219 20.676 13.934 L 13.927 3.814 C 13.057 2.505 11.312 2.113 9.966 2.922 L 5.734 5.464 C 4.404 6.246 3.429 7.512 3.012 8.997 C 1.488 14.55 2.634 24.132 16.751 38.25 C 27.98 49.479 36.339 52.498 42.085 52.498 C 43.408 52.504 44.725 52.332 46.001 51.987 C 47.487 51.57 48.753 50.595 49.534 49.264 L 52.079 45.035 C 52.889 43.688 52.497 41.943 51.188 41.072 Z  M 50.643 44.18 L 48.104 48.412 C 47.543 49.372 46.633 50.078 45.563 50.382 C 40.437 51.789 31.482 50.623 17.93 37.071 C 4.377 23.519 3.212 14.565 4.619 9.438 C 4.923 8.367 5.63 7.455 6.591 6.893 L 10.823 4.354 C 11.407 4.003 12.165 4.173 12.542 4.741 L 16.208 10.245 L 19.285 14.86 C 19.654 15.418 19.533 16.164 19.007 16.577 L 15.218 19.524 C 14.065 20.405 13.736 22.001 14.446 23.267 L 14.747 23.813 C 15.812 25.766 17.136 28.196 21.969 33.029 C 26.803 37.861 29.231 39.185 31.184 40.25 L 31.731 40.552 C 32.997 41.261 34.592 40.932 35.474 39.779 L 38.421 35.991 C 38.833 35.465 39.58 35.344 40.137 35.712 L 50.257 42.461 C 50.825 42.838 50.995 43.596 50.643 44.18 Z " fill="rgb(237,237,237)"/><path d=" M 30.832 10.838 C 38.651 10.846 44.988 17.183 44.996 25.002 C 44.996 25.462 45.369 25.835 45.83 25.835 C 46.29 25.835 46.663 25.462 46.663 25.002 C 46.653 16.263 39.571 9.181 30.832 9.171 C 30.372 9.171 29.999 9.544 29.999 10.004 C 29.999 10.465 30.372 10.838 30.832 10.838 Z " fill="rgb(237,237,237)"/><defs><filter id="L96hR5syvoVRbldAocbOpkrHUxaXk2pZ" x="-200%" y="-200%" width="400%" height="400%" filterUnits="objectBoundingBox" color-interpolation-filters="sRGB"><feGaussianBlur xmlns="http://www.w3.org/2000/svg" in="SourceGraphic" stdDeviation="10.73402265709757"/><feOffset xmlns="http://www.w3.org/2000/svg" dx="0" dy="0" result="pf_100_offsetBlur"/><feFlood xmlns="http://www.w3.org/2000/svg" flood-color="#F1C355" flood-opacity="0.7"/><feComposite xmlns="http://www.w3.org/2000/svg" in2="pf_100_offsetBlur" operator="in" result="pf_100_dropShadow"/><feBlend xmlns="http://www.w3.org/2000/svg" in="SourceGraphic" in2="pf_100_dropShadow" mode="normal"/></filter></defs><g filter="url(#L96hR5syvoVRbldAocbOpkrHUxaXk2pZ)"><path d=" M 30.832 15.837 C 35.891 15.843 39.991 19.943 39.997 25.002 C 39.997 25.462 40.37 25.835 40.83 25.835 C 41.291 25.835 41.664 25.462 41.664 25.002 C 41.657 19.023 36.811 14.177 30.832 14.171 C 30.372 14.171 29.999 14.544 29.999 15.004 C 29.999 15.464 30.372 15.837 30.832 15.837 Z " fill="rgb(237,237,237)"/></g><path d=" M 30.832 20.836 C 33.131 20.839 34.995 22.703 34.998 25.002 C 34.998 25.462 35.371 25.835 35.831 25.835 C 36.291 25.835 36.664 25.462 36.664 25.002 C 36.661 21.783 34.051 19.173 30.832 19.17 C 30.372 19.17 29.999 19.543 29.999 20.003 C 29.999 20.463 30.372 20.836 30.832 20.836 Z " fill="rgb(237,237,237)"/></g></g></g></g></g></svg>