<?xml version="1.0" encoding="UTF-8" standalone="no"?><!-- Generator: Gravit.io --><svg xmlns="http://www.w3.org/2000/svg" xmlns:xlink="http://www.w3.org/1999/xlink" style="isolation:isolate" viewBox="0 0 48 53" width="48pt" height="53pt"><defs><clipPath id="_clipPath_iyB3lHHXACwa3CodD1GPjrRbwXnCAcB5"><rect width="48" height="53"/></clipPath></defs><g clip-path="url(#_clipPath_iyB3lHHXACwa3CodD1GPjrRbwXnCAcB5)"><clipPath id="_clipPath_73ae07rvNG3BuKrUHRgqpp8gI7udUKMR"><rect x="0" y="2.5" width="48" height="48" transform="matrix(1,0,0,1,0,0)" fill="rgb(255,255,255)"/></clipPath><g clip-path="url(#_clipPath_73ae07rvNG3BuKrUHRgqpp8gI7udUKMR)"><g><g><g><defs><filter id="X9ugqO7ZupgpRMMtReMU8c5zUbHGJv39" x="-200%" y="-200%" width="400%" height="400%" filterUnits="objectBoundingBox" color-interpolation-filters="sRGB"><feGaussianBlur xmlns="http://www.w3.org/2000/svg" in="SourceGraphic" stdDeviation="2.146804531419514"/><feOffset xmlns="http://www.w3.org/2000/svg" dx="0" dy="0" result="pf_100_offsetBlur"/><feFlood xmlns="http://www.w3.org/2000/svg" flood-color="#F1C355" flood-opacity="0.65"/><feComposite xmlns="http://www.w3.org/2000/svg" in2="pf_100_offsetBlur" operator="in" result="pf_100_dropShadow"/><feBlend xmlns="http://www.w3.org/2000/svg" in="SourceGraphic" in2="pf_100_dropShadow" mode="normal"/></filter></defs><g filter="url(#X9ugqO7ZupgpRMMtReMU8c5zUbHGJv39)"><path d=" M 24 50.259 L 23.177 49.068 C 22.558 48.171 8 26.999 8 18.5 C 8 9.678 15.178 2.5 24 2.5 C 32.822 2.5 40 9.678 40 18.5 C 40 26.999 25.442 48.171 24.823 49.068 L 24 50.259 L 24 50.259 Z  M 24 4.5 C 16.28 4.5 10 10.78 10 18.5 C 10 25.287 20.885 42.055 24 46.714 C 27.115 42.055 38 25.287 38 18.5 C 38 10.78 31.72 4.5 24 4.5 Z " fill="rgb(241,195,85)"/></g></g><g><defs><filter id="VCFRTeYK7Zg6TJdwMW5XlAyr9TzBWVpp" x="-200%" y="-200%" width="400%" height="400%" filterUnits="objectBoundingBox" color-interpolation-filters="sRGB"><feGaussianBlur xmlns="http://www.w3.org/2000/svg" in="SourceGraphic" stdDeviation="2.146804531419514"/><feOffset xmlns="http://www.w3.org/2000/svg" dx="0" dy="0" result="pf_100_offsetBlur"/><feFlood xmlns="http://www.w3.org/2000/svg" flood-color="#F1C355" flood-opacity="0.65"/><feComposite xmlns="http://www.w3.org/2000/svg" in2="pf_100_offsetBlur" operator="in" result="pf_100_dropShadow"/><feBlend xmlns="http://www.w3.org/2000/svg" in="SourceGraphic" in2="pf_100_dropShadow" mode="normal"/></filter></defs><g filter="url(#VCFRTeYK7Zg6TJdwMW5XlAyr9TzBWVpp)"><path d=" M 24 25.5 C 20.141 25.5 17 22.36 17 18.5 C 17 14.64 20.141 11.5 24 11.5 C 27.859 11.5 31 14.64 31 18.5 C 31 22.36 27.859 25.5 24 25.5 Z  M 24 13.5 C 21.243 13.5 19 15.743 19 18.5 C 19 21.257 21.243 23.5 24 23.5 C 26.757 23.5 29 21.257 29 18.5 C 29 15.743 26.757 13.5 24 13.5 Z " fill="rgb(241,195,85)"/></g></g></g></g></g></g></svg>