<?xml version="1.0" encoding="UTF-8" standalone="no"?><!-- Generator: Gravit.io --><svg xmlns="http://www.w3.org/2000/svg" xmlns:xlink="http://www.w3.org/1999/xlink" style="isolation:isolate" viewBox="0 0 48 48" width="48pt" height="48pt"><defs><clipPath id="_clipPath_EBZXS2J4YhSSAxWeugXmtKfRg3QS2vpM"><rect width="48" height="48"/></clipPath></defs><g clip-path="url(#_clipPath_EBZXS2J4YhSSAxWeugXmtKfRg3QS2vpM)"><g><g><path d=" M 24 47.759 L 23.177 46.568 C 22.558 45.671 8 24.499 8 16 C 8 7.178 15.178 0 24 0 C 32.822 0 40 7.178 40 16 C 40 24.499 25.442 45.671 24.823 46.568 L 24 47.759 L 24 47.759 Z  M 24 2 C 16.28 2 10 8.28 10 16 C 10 22.787 20.885 39.555 24 44.214 C 27.115 39.555 38 22.787 38 16 C 38 8.28 31.72 2 24 2 Z " fill="rgb(241,195,85)"/></g><g><path d=" M 24 23 C 20.141 23 17 19.86 17 16 C 17 12.14 20.141 9 24 9 C 27.859 9 31 12.14 31 16 C 31 19.86 27.859 23 24 23 Z  M 24 11 C 21.243 11 19 13.243 19 16 C 19 18.757 21.243 21 24 21 C 26.757 21 29 18.757 29 16 C 29 13.243 26.757 11 24 11 Z " fill="rgb(241,195,85)"/></g></g></g></svg>