<?xml version="1.0" encoding="UTF-8" standalone="no"?><!-- Generator: Gravit.io --><svg xmlns="http://www.w3.org/2000/svg" xmlns:xlink="http://www.w3.org/1999/xlink" style="isolation:isolate" viewBox="0 0 54 38" width="54pt" height="38pt"><defs><clipPath id="_clipPath_aR93qTonMcwdPMXAvKMGRtJwFwCosmVl"><rect width="54" height="38"/></clipPath></defs><g clip-path="url(#_clipPath_aR93qTonMcwdPMXAvKMGRtJwFwCosmVl)"><path d=" M 53.449 1.198 C 53.449 1.19 53.449 1.183 53.447 1.175 C 53.444 1.166 53.444 1.146 53.443 1.132 C 53.438 1.07 53.425 1.009 53.406 0.95 C 53.403 0.942 53.406 0.934 53.401 0.925 C 53.396 0.917 53.396 0.919 53.395 0.915 C 53.369 0.85 53.335 0.789 53.293 0.733 C 53.284 0.721 53.274 0.709 53.264 0.697 C 53.223 0.648 53.177 0.604 53.125 0.566 C 53.12 0.562 53.115 0.557 53.11 0.553 C 53.053 0.516 52.99 0.486 52.925 0.464 C 52.91 0.459 52.894 0.454 52.88 0.45 C 52.811 0.429 52.74 0.418 52.668 0.417 L 1.246 0.417 C 1.174 0.418 1.102 0.429 1.034 0.45 C 1.018 0.454 1.003 0.459 0.989 0.464 C 0.924 0.486 0.861 0.516 0.804 0.553 C 0.799 0.557 0.794 0.562 0.789 0.566 C 0.737 0.604 0.691 0.648 0.65 0.697 C 0.64 0.709 0.63 0.721 0.621 0.733 C 0.579 0.789 0.545 0.85 0.519 0.915 C 0.519 0.919 0.515 0.922 0.513 0.925 C 0.512 0.929 0.511 0.942 0.508 0.95 C 0.489 1.009 0.476 1.07 0.471 1.132 C 0.471 1.147 0.467 1.161 0.467 1.175 C 0.467 1.188 0.465 1.19 0.465 1.198 L 0.465 36.797 C 0.465 36.807 0.468 36.817 0.468 36.827 C 0.469 36.855 0.472 36.883 0.477 36.911 C 0.48 36.934 0.483 36.956 0.489 36.979 C 0.496 37.006 0.504 37.033 0.514 37.059 C 0.521 37.08 0.528 37.101 0.538 37.121 C 0.55 37.148 0.564 37.173 0.579 37.198 C 0.59 37.216 0.601 37.234 0.613 37.251 C 0.63 37.275 0.649 37.298 0.669 37.319 C 0.684 37.335 0.698 37.352 0.714 37.367 C 0.723 37.375 0.73 37.386 0.74 37.394 C 0.75 37.402 0.756 37.402 0.763 37.407 C 0.824 37.457 0.892 37.496 0.965 37.525 C 0.981 37.531 0.997 37.535 1.013 37.54 C 1.084 37.563 1.157 37.576 1.231 37.578 C 1.237 37.578 1.242 37.58 1.247 37.58 L 1.257 37.58 L 52.657 37.58 L 52.667 37.58 C 52.672 37.58 52.677 37.578 52.682 37.578 C 52.756 37.576 52.83 37.563 52.901 37.54 C 52.916 37.535 52.932 37.531 52.945 37.525 C 53.019 37.496 53.087 37.457 53.148 37.407 C 53.155 37.402 53.164 37.4 53.171 37.394 C 53.178 37.388 53.188 37.375 53.198 37.367 C 53.214 37.352 53.229 37.336 53.242 37.319 C 53.262 37.298 53.281 37.275 53.298 37.251 C 53.31 37.234 53.321 37.216 53.332 37.198 C 53.347 37.173 53.361 37.148 53.373 37.121 C 53.383 37.101 53.39 37.08 53.398 37.059 C 53.407 37.033 53.416 37.006 53.423 36.979 C 53.428 36.957 53.431 36.934 53.435 36.911 C 53.439 36.883 53.442 36.855 53.443 36.827 C 53.443 36.817 53.446 36.807 53.446 36.797 L 53.449 1.198 Z  M 18.818 17.35 L 26.445 23.913 C 26.739 24.165 27.173 24.165 27.466 23.913 L 35.094 17.35 L 50.973 36.014 L 2.94 36.014 L 18.818 17.35 Z  M 2.028 34.67 L 2.028 2.904 L 17.633 16.329 L 2.028 34.67 Z  M 36.279 16.329 L 51.884 2.904 L 51.884 34.67 L 36.279 16.329 Z  M 50.556 1.98 L 34.681 15.641 C 34.678 15.643 34.675 15.644 34.672 15.647 C 34.669 15.65 34.666 15.653 34.663 15.656 L 26.956 22.287 L 19.249 15.656 C 19.246 15.653 19.243 15.65 19.24 15.647 L 19.231 15.641 L 3.355 1.98 L 50.556 1.98 Z " fill="rgb(241,195,85)"/></g></svg>