<?xml version="1.0" encoding="UTF-8" standalone="no"?><!-- Generator: Gravit.io --><svg xmlns="http://www.w3.org/2000/svg" xmlns:xlink="http://www.w3.org/1999/xlink" style="isolation:isolate" viewBox="0 0 57 42" width="57pt" height="42pt"><defs><clipPath id="_clipPath_QNRRvEtu3OcOvGU4mcZrE2V8EN7JGwUY"><rect width="57" height="42"/></clipPath></defs><g clip-path="url(#_clipPath_QNRRvEtu3OcOvGU4mcZrE2V8EN7JGwUY)"><defs><filter id="gpXzlUt9Mbyu40ibhKvKjmbZePFjKqWF" x="-200%" y="-200%" width="400%" height="400%" filterUnits="objectBoundingBox" color-interpolation-filters="sRGB"><feGaussianBlur xmlns="http://www.w3.org/2000/svg" in="SourceGraphic" stdDeviation="2.146804531419514"/><feOffset xmlns="http://www.w3.org/2000/svg" dx="0" dy="0" result="pf_100_offsetBlur"/><feFlood xmlns="http://www.w3.org/2000/svg" flood-color="#F1C355" flood-opacity="1"/><feComposite xmlns="http://www.w3.org/2000/svg" in2="pf_100_offsetBlur" operator="in" result="pf_100_dropShadow"/><feBlend xmlns="http://www.w3.org/2000/svg" in="SourceGraphic" in2="pf_100_dropShadow" mode="normal"/></filter></defs><g filter="url(#gpXzlUt9Mbyu40ibhKvKjmbZePFjKqWF)"><path d=" M 55.342 3.201 C 55.342 3.193 55.342 3.186 55.34 3.178 C 55.338 3.17 55.337 3.15 55.336 3.136 C 55.331 3.074 55.319 3.013 55.299 2.954 C 55.296 2.945 55.299 2.937 55.294 2.929 C 55.289 2.921 55.29 2.922 55.288 2.919 C 55.263 2.854 55.229 2.792 55.187 2.737 C 55.177 2.724 55.168 2.713 55.157 2.701 C 55.117 2.652 55.07 2.607 55.019 2.569 C 55.013 2.565 55.009 2.56 55.003 2.557 C 54.946 2.519 54.884 2.489 54.818 2.467 C 54.803 2.462 54.788 2.458 54.774 2.453 C 54.705 2.433 54.633 2.422 54.562 2.421 L 3.139 2.421 C 3.067 2.422 2.996 2.433 2.927 2.453 C 2.911 2.458 2.897 2.462 2.882 2.467 C 2.817 2.489 2.755 2.519 2.697 2.557 C 2.692 2.56 2.687 2.565 2.682 2.569 C 2.631 2.607 2.584 2.652 2.543 2.701 C 2.534 2.713 2.523 2.724 2.514 2.737 C 2.472 2.792 2.438 2.854 2.412 2.919 C 2.412 2.922 2.408 2.925 2.407 2.929 C 2.405 2.933 2.404 2.945 2.402 2.954 C 2.382 3.013 2.37 3.074 2.365 3.136 C 2.365 3.15 2.361 3.164 2.361 3.178 C 2.361 3.192 2.358 3.193 2.358 3.201 L 2.358 38.8 C 2.358 38.81 2.361 38.82 2.361 38.83 C 2.363 38.859 2.366 38.887 2.37 38.915 C 2.374 38.937 2.377 38.959 2.382 38.983 C 2.389 39.01 2.397 39.036 2.407 39.063 C 2.415 39.084 2.422 39.105 2.431 39.125 C 2.444 39.151 2.458 39.177 2.473 39.202 C 2.484 39.219 2.494 39.238 2.506 39.255 C 2.524 39.279 2.542 39.301 2.562 39.323 C 2.577 39.339 2.592 39.355 2.607 39.37 C 2.616 39.379 2.623 39.389 2.633 39.397 C 2.643 39.406 2.649 39.405 2.657 39.411 C 2.718 39.46 2.786 39.5 2.859 39.528 C 2.874 39.535 2.89 39.538 2.907 39.543 C 2.977 39.566 3.051 39.579 3.125 39.581 C 3.13 39.581 3.135 39.584 3.14 39.584 L 3.151 39.584 L 54.55 39.584 L 54.56 39.584 C 54.566 39.584 54.571 39.581 54.575 39.581 C 54.65 39.579 54.723 39.566 54.794 39.543 C 54.81 39.538 54.825 39.535 54.839 39.528 C 54.912 39.5 54.98 39.46 55.041 39.411 C 55.049 39.405 55.058 39.403 55.065 39.397 C 55.072 39.392 55.082 39.379 55.091 39.37 C 55.107 39.355 55.122 39.339 55.136 39.323 C 55.156 39.301 55.174 39.279 55.192 39.255 C 55.204 39.238 55.214 39.22 55.225 39.202 C 55.24 39.177 55.254 39.151 55.267 39.125 C 55.276 39.105 55.283 39.084 55.291 39.063 C 55.301 39.036 55.309 39.01 55.316 38.983 C 55.321 38.96 55.324 38.938 55.328 38.915 C 55.332 38.887 55.335 38.859 55.337 38.83 C 55.337 38.82 55.34 38.81 55.34 38.8 L 55.342 3.201 Z  M 20.712 19.354 L 28.339 25.916 C 28.632 26.169 29.066 26.169 29.36 25.916 L 36.987 19.354 L 52.866 38.018 L 4.833 38.018 L 20.712 19.354 Z  M 3.922 36.674 L 3.922 4.907 L 19.527 18.333 L 3.922 36.674 Z  M 38.172 18.333 L 53.777 4.907 L 53.777 36.674 L 38.172 18.333 Z  M 52.45 3.984 L 36.574 17.644 C 36.572 17.646 36.568 17.648 36.565 17.65 C 36.563 17.653 36.56 17.657 36.557 17.659 L 28.849 24.291 L 21.142 17.659 C 21.139 17.657 21.137 17.653 21.134 17.65 L 21.125 17.644 L 5.248 3.984 L 52.45 3.984 Z " fill="rgb(241,195,85)"/></g></g></svg>