<?xml version="1.0" encoding="UTF-8" standalone="no"?><!-- Generator: Gravit.io --><svg xmlns="http://www.w3.org/2000/svg" xmlns:xlink="http://www.w3.org/1999/xlink" style="isolation:isolate" viewBox="0 0 368 368" width="368pt" height="368pt"><defs><clipPath id="_clipPath_ptX0SazJBtjeVdUCm1QXUB4do4HVj66B"><rect width="368" height="368"/></clipPath></defs><g clip-path="url(#_clipPath_ptX0SazJBtjeVdUCm1QXUB4do4HVj66B)"><g><g><g><path d=" M 261.336 226.04 C 258.04 223.088 252.976 223.376 250.04 226.664 C 233.352 245.312 209.288 256 184 256 C 158.72 256 134.648 245.312 117.96 226.664 C 115.008 223.376 109.96 223.088 106.664 226.04 C 103.368 228.984 103.096 234.04 106.04 237.336 C 125.76 259.368 154.176 272 184 272 C 213.832 272 242.248 259.36 261.96 237.336 C 264.904 234.04 264.624 228.984 261.336 226.04 Z " fill="rgb(32,40,53)"/><path d=" M 184 0 C 82.544 0 0 82.544 0 184 C 0 285.456 82.544 368 184 368 C 285.456 368 368 285.456 368 184 C 368 82.544 285.456 0 184 0 Z  M 184 352 C 91.36 352 16 276.64 16 184 C 16 91.36 91.36 16 184 16 C 276.64 16 352 91.36 352 184 C 352 276.64 276.64 352 184 352 Z " fill="rgb(32,40,53)"/><path d=" M 248 128 C 225.944 128 208 145.944 208 168 C 208 172.416 211.584 176 216 176 C 220.416 176 224 172.416 224 168 C 224 154.768 234.768 144 248 144 C 261.232 144 272 154.768 272 168 C 272 172.416 275.584 176 280 176 C 284.416 176 288 172.416 288 168 C 288 145.944 270.056 128 248 128 Z " fill="rgb(32,40,53)"/><path d=" M 144 168 C 144 172.416 147.584 176 152 176 C 156.416 176 160 172.416 160 168 C 160 145.944 142.056 128 120 128 C 97.944 128 80 145.944 80 168 C 80 172.416 83.584 176 88 176 C 92.416 176 96 172.416 96 168 C 96 154.768 106.768 144 120 144 C 133.232 144 144 154.768 144 168 Z " fill="rgb(32,40,53)"/></g></g></g></g></svg>