<?xml version="1.0" encoding="UTF-8" standalone="no"?><!-- Generator: Gravit.io --><svg xmlns="http://www.w3.org/2000/svg" xmlns:xlink="http://www.w3.org/1999/xlink" style="isolation:isolate" viewBox="0 0 512 512" width="512pt" height="512pt"><defs><clipPath id="_clipPath_j8jPkcYUxTuiuGzrZodZBp9hzrHfUOUq"><rect width="512" height="512"/></clipPath></defs><g clip-path="url(#_clipPath_j8jPkcYUxTuiuGzrZodZBp9hzrHfUOUq)"><g><path d=" M 289.199 71.63 C 284.359 66.79 276.518 66.79 271.677 71.63 L 123.221 220.086 L 66.153 163.018 C 61.312 158.177 53.471 158.177 48.63 163.018 C 43.79 167.858 43.79 175.699 48.63 180.54 L 114.46 246.37 C 119.301 251.21 127.142 251.21 131.982 246.37 L 289.199 89.153 C 294.04 84.312 294.04 76.471 289.199 71.63 Z " fill="rgb(255,255,255)"/><mask id="_mask_5w42fChNIyyvmL5pn0UFjrNVexw18Skq" x="-200%" y="-200%" width="400%" height="400%"><rect x="-200%" y="-200%" width="400%" height="400%" style="fill:white;"/><path d=" M 49.63 114 L 203 114 C 203.552 114 204 114.448 204 115 L 204 268 C 204 268.552 203.552 269 203 269 L 49.63 269 C 49.078 269 48.63 268.552 48.63 268 L 48.63 115 C 48.63 114.448 49.078 114 49.63 114 Z " fill="black" stroke="none"/></mask><path d=" M 49.63 114 L 203 114 C 203.552 114 204 114.448 204 115 L 204 268 C 204 268.552 203.552 269 203 269 L 49.63 269 C 49.078 269 48.63 268.552 48.63 268 L 48.63 115 C 48.63 114.448 49.078 114 49.63 114 Z " fill="none" mask="url(#_mask_5w42fChNIyyvmL5pn0UFjrNVexw18Skq)" vector-effect="non-scaling-stroke" stroke-width="48" stroke="rgb(255,255,255)" stroke-linejoin="miter" stroke-linecap="butt" stroke-miterlimit="4"/><path d=" M 49.63 114 L 203 114 C 203.552 114 204 114.448 204 115 L 204 268 C 204 268.552 203.552 269 203 269 L 49.63 269 C 49.078 269 48.63 268.552 48.63 268 L 48.63 115 C 48.63 114.448 49.078 114 49.63 114 Z " fill="none"/></g></g></svg>