<?xml version="1.0" encoding="UTF-8" standalone="no"?><!-- Generator: Gravit.io --><svg xmlns="http://www.w3.org/2000/svg" xmlns:xlink="http://www.w3.org/1999/xlink" style="isolation:isolate" viewBox="0 0 20 16" width="20pt" height="16pt"><defs><clipPath id="_clipPath_mlPQifyI0Cttr0tp2M02vyXKBLY6ckMD"><rect width="20" height="16"/></clipPath></defs><g clip-path="url(#_clipPath_mlPQifyI0Cttr0tp2M02vyXKBLY6ckMD)"><g><g><g><g><g style="mix-blend-mode:overlay;"><path d=" M 1.419 2 L 13.581 2 C 13.812 2 14 2.188 14 2.419 L 14 5.095 L 14 14.581 C 14 14.812 13.812 15 13.581 15 L 1.419 15 C 1.188 15 1 14.812 1 14.581 L 1 2.419 C 1 2.188 1.188 2 1.419 2 Z " fill="none" vector-effect="non-scaling-stroke" stroke-width="1" stroke="rgb(243,84,84)" stroke-linejoin="miter" stroke-linecap="square" stroke-miterlimit="3"/></g><path d=" M 19.069 1.066 C 18.718 0.72 18.148 0.72 17.797 1.066 L 7.014 11.67 L 2.869 7.594 C 2.518 7.248 1.948 7.248 1.597 7.594 C 1.245 7.939 1.245 8.499 1.597 8.845 L 6.378 13.547 C 6.729 13.893 7.299 13.893 7.65 13.547 L 19.069 2.317 C 19.421 1.972 19.421 1.412 19.069 1.066 Z " fill="rgb(243,84,84)"/></g></g></g></g></g></svg>