<?xml version="1.0" encoding="UTF-8" standalone="no"?><!-- Generator: Gravit.io --><svg xmlns="http://www.w3.org/2000/svg" xmlns:xlink="http://www.w3.org/1999/xlink" style="isolation:isolate" viewBox="0 0 24 24" width="24pt" height="24pt"><defs><clipPath id="_clipPath_MtEiuN8pyRs1mk4NihKT4fsJEHfvHTuv"><rect width="24" height="24"/></clipPath></defs><g clip-path="url(#_clipPath_MtEiuN8pyRs1mk4NihKT4fsJEHfvHTuv)"><path d=" M 21.547 7 L 18.257 7 C 17.983 7 17.732 7.15 17.602 7.392 C 17.602 7.392 16.29 9.808 15.868 10.623 C 14.734 12.813 14 12.125 14 11.109 L 14 7.604 C 14 6.994 13.506 6.5 12.896 6.5 L 10.422 6.5 C 9.737 6.449 9.074 6.757 8.671 7.313 C 8.671 7.313 9.927 7.109 9.927 8.802 C 9.927 9.222 9.949 10.429 9.968 11.442 C 9.976 11.748 9.792 12.026 9.508 12.138 C 9.224 12.251 8.899 12.174 8.695 11.946 C 7.683 10.538 6.844 9.012 6.197 7.403 C 6.084 7.157 5.838 7 5.567 7 C 4.853 7 3.425 7 2.577 7 C 2.41 6.999 2.253 7.08 2.158 7.217 C 2.062 7.353 2.039 7.528 2.097 7.685 C 3.005 10.175 6.916 18 11.379 18 L 13.258 18 C 13.668 18 14 17.668 14 17.258 L 14 16.123 C 14 15.833 14.173 15.57 14.44 15.454 C 14.707 15.339 15.017 15.393 15.229 15.592 L 17.477 17.705 C 17.679 17.894 17.946 18 18.223 18 L 21.176 18 C 22.6 18 22.6 17.012 21.823 16.247 C 21.277 15.709 19.305 13.63 19.305 13.63 C 18.956 13.269 18.923 12.707 19.227 12.307 C 19.864 11.468 20.907 10.095 21.349 9.507 C 21.953 8.703 23.047 7 21.547 7 Z " fill="rgb(87,127,168)"/></g></svg>